<?xml version="1.0" standalone="no"?><svg version="1.1" xmlns="http://www.w3.org/2000/svg" width="2134.9832047532664" height="1156.2896978027068"><svg x="252.05956174777384" y="27.285494746448308" width="337.0727950031055" height="227.33618361047058"><path d="M8,201.33618361047058L156.03639750155276,201.33618361047058Q166.03639750155276,201.33618361047058,166.03639750155276,191.33618361047058L166.03639750155276,36Q166.03639750155276,26,176.03639750155276,26L324.0727950031055,26L176.03639750155276,26Q166.03639750155276,26,166.03639750155276,36L166.03639750155276,191.33618361047058Q166.03639750155276,201.33618361047058,156.03639750155276,201.33618361047058L8,201.33618361047058L8,201.33618361047058M18,197.33618361047058L18,205.33618361047058M324.0727950031055,22L314.0727950031055,26L324.0727950031055,30" fill="none" stroke="#619BCC" stroke-width="2"></path><text x="11" y="198.33618361047058" style="font-family: &quot;Open Sans&quot;, sans-serif; font-size: 14px; font-weight: normal; fill: black;">1</text><text x="313.3618575031055" y="23" style="font-family: &quot;Open Sans&quot;, sans-serif; font-size: 14px; font-weight: normal; fill: black;">*</text></svg><svg x="769.4209309696294" y="23.5" width="343.9321703291663" height="88.78549474644831"><path d="M8,62.78549474644831L159.46608516458315,62.78549474644831Q169.46608516458315,62.78549474644831,169.46608516458315,52.78549474644831L169.46608516458315,36Q169.46608516458315,26,179.46608516458315,26L330.9321703291663,26L179.46608516458315,26Q169.46608516458315,26,169.46608516458315,36L169.46608516458315,52.78549474644831Q169.46608516458315,62.78549474644831,159.46608516458315,62.78549474644831L8,62.78549474644831L8,62.78549474644831M8,58.78549474644831L18,62.78549474644831L8,66.78549474644831M320.9321703291663,22L320.9321703291663,30" fill="none" stroke="#619BCC" stroke-width="2"></path><text x="11" y="59.78549474644831" style="font-family: &quot;Open Sans&quot;, sans-serif; font-size: 14px; font-weight: normal; fill: black;">*</text><text x="319.9272875166663" y="23" style="font-family: &quot;Open Sans&quot;, sans-serif; font-size: 14px; font-weight: normal; fill: black;">1</text></svg><svg x="1690.752707301016" y="341.81407030137876" width="96.59424950064681" height="328.0096492244186"><path d="M8,302.0096492244186L83.59424950064681,302.0096492244186Q93.59424950064681,302.0096492244186,93.59424950064681,292.0096492244186L93.59424950064681,36Q93.59424950064681,26,83.59424950064681,26L73.59424950064681,26L83.59424950064681,26Q93.59424950064681,26,93.59424950064681,36L93.59424950064681,292.0096492244186Q93.59424950064681,302.0096492244186,83.59424950064681,302.0096492244186L8,302.0096492244186L8,302.0096492244186ZM8,298.0096492244186L18,302.0096492244186L8,306.0096492244186M83.59424950064681,22L83.59424950064681,30" fill="none" stroke="#619BCC" stroke-width="2"></path><text x="11" y="299.0096492244186" style="font-family: &quot;Open Sans&quot;, sans-serif; font-size: 14px; font-weight: normal; fill: black;">*</text><text x="76.59424950064681" y="23" style="font-family: &quot;Open Sans&quot;, sans-serif; font-size: 14px; font-weight: normal; fill: black;">1</text></svg><svg x="818.2264009631019" y="650.8237195257973" width="668.5355836816641" height="53.551902361625594"><path d="M8,27.551902361625594L330.99184066001925,27.551902361625594Q331.76779184083205,27.551902361625594,331.76779184083205,26.775951180812797L331.76779184083205,26.775951180812797Q331.76779184083205,26,332.54374302164484,26L655.5355836816641,26L332.54374302164484,26Q331.76779184083205,26,331.76779184083205,26.775951180812797L331.76779184083205,26.775951180812797Q331.76779184083205,27.551902361625594,330.99184066001925,27.551902361625594L8,27.551902361625594L8,27.551902361625594M18,23.551902361625594L18,31.551902361625594M655.5355836816641,22L645.5355836816641,26L655.5355836816641,30" fill="none" stroke="#619BCC" stroke-width="2"></path><text x="11" y="24.551902361625594" style="font-family: &quot;Open Sans&quot;, sans-serif; font-size: 14px; font-weight: normal; fill: black;">1</text><text x="644.8246461816641" y="23" style="font-family: &quot;Open Sans&quot;, sans-serif; font-size: 14px; font-weight: normal; fill: black;">*</text></svg><svg x="176.04833984375" y="579.5400224910312" width="421.82942830685204" height="223.83559939639173"><path d="M8,26L198.41471415342602,26Q208.41471415342602,26,208.41471415342602,36L208.41471415342602,187.83559939639173Q208.41471415342602,197.83559939639173,218.41471415342602,197.83559939639173L408.82942830685204,197.83559939639173L218.41471415342602,197.83559939639173Q208.41471415342602,197.83559939639173,208.41471415342602,187.83559939639173L208.41471415342602,36Q208.41471415342602,26,198.41471415342602,26L8,26L8,26M18,22L18,30M408.82942830685204,193.83559939639173L398.82942830685204,197.83559939639173L408.82942830685204,201.83559939639173" fill="none" stroke="#619BCC" stroke-width="2"></path><text x="11" y="23" style="font-family: &quot;Open Sans&quot;, sans-serif; font-size: 14px; font-weight: normal; fill: black;">1</text><text x="398.11849080685204" y="194.83559939639173" style="font-family: &quot;Open Sans&quot;, sans-serif; font-size: 14px; font-weight: normal; fill: black;">*</text></svg><svg x="818.2264009631019" y="784.375621887423" width="243.26206882956853" height="112.27533272949472"><path d="M8,26L109.13103441478427,26Q119.13103441478427,26,119.13103441478427,36L119.13103441478427,76.27533272949472Q119.13103441478427,86.27533272949472,129.13103441478427,86.27533272949472L230.26206882956853,86.27533272949472L129.13103441478427,86.27533272949472Q119.13103441478427,86.27533272949472,119.13103441478427,76.27533272949472L119.13103441478427,36Q119.13103441478427,26,109.13103441478427,26L8,26L8,26M8,22L18,26L8,30M220.26206882956853,82.27533272949472L220.26206882956853,90.27533272949472" fill="none" stroke="#619BCC" stroke-width="2"></path><text x="11" y="23" style="font-family: &quot;Open Sans&quot;, sans-serif; font-size: 14px; font-weight: normal; fill: black;">*</text><text x="219.25718601706853" y="83.27533272949472" style="font-family: &quot;Open Sans&quot;, sans-serif; font-size: 14px; font-weight: normal; fill: black;">1</text></svg><svg x="451.5835077381343" y="817.375621887423" width="146.29426041246774" height="245.96718181779215"><path d="M8,219.96718181779215L60.64713020623387,219.96718181779215Q70.64713020623387,219.96718181779215,70.64713020623387,209.96718181779215L70.64713020623387,36Q70.64713020623387,26,80.64713020623387,26L133.29426041246774,26L80.64713020623387,26Q70.64713020623387,26,70.64713020623387,36L70.64713020623387,209.96718181779215Q70.64713020623387,219.96718181779215,60.64713020623387,219.96718181779215L8,219.96718181779215L8,219.96718181779215M18,215.96718181779215L18,223.96718181779215M133.29426041246774,22L123.29426041246774,26L133.29426041246774,30" fill="none" stroke="#619BCC" stroke-width="2"></path><text x="11" y="216.96718181779215" style="font-family: &quot;Open Sans&quot;, sans-serif; font-size: 14px; font-weight: normal; fill: black;">1</text><text x="122.58332291246774" y="23" style="font-family: &quot;Open Sans&quot;, sans-serif; font-size: 14px; font-weight: normal; fill: black;">*</text></svg><svg x="1358.8677297143665" y="119.48943687014719" width="253.12051987440645" height="285.2672985402386"><path d="M8,259.2672985402386L114.06025993720323,259.2672985402386Q124.06025993720323,259.2672985402386,124.06025993720323,249.26729854023858L124.06025993720323,36Q124.06025993720323,26,134.06025993720323,26L240.12051987440645,26L134.06025993720323,26Q124.06025993720323,26,124.06025993720323,36L124.06025993720323,249.26729854023858Q124.06025993720323,259.2672985402386,114.06025993720323,259.2672985402386L8,259.2672985402386L8,259.2672985402386M18,255.26729854023858L18,263.2672985402386M240.12051987440645,22L230.12051987440645,26L240.12051987440645,30" fill="none" stroke="#619BCC" stroke-width="2"></path><text x="11" y="256.2672985402386" style="font-family: &quot;Open Sans&quot;, sans-serif; font-size: 14px; font-weight: normal; fill: black;">1</text><text x="229.40958237440645" y="23" style="font-family: &quot;Open Sans&quot;, sans-serif; font-size: 14px; font-weight: normal; fill: black;">*</text></svg><svg x="1246.4405036425458" y="56.5" width="365.5477459462272" height="147.9894368701472"><path d="M8,26L170.2738729731136,26Q180.2738729731136,26,180.2738729731136,36L180.2738729731136,111.98943687014719Q180.2738729731136,121.98943687014719,190.2738729731136,121.98943687014719L352.5477459462272,121.98943687014719L190.2738729731136,121.98943687014719Q180.2738729731136,121.98943687014719,180.2738729731136,111.98943687014719L180.2738729731136,36Q180.2738729731136,26,170.2738729731136,26L8,26L8,26M18,22L18,30M352.5477459462272,117.98943687014719L342.5477459462272,121.98943687014719L352.5477459462272,125.98943687014719" fill="none" stroke="#619BCC" stroke-width="2"></path><text x="11" y="23" style="font-family: &quot;Open Sans&quot;, sans-serif; font-size: 14px; font-weight: normal; fill: black;">1</text><text x="341.8368084462272" y="118.98943687014719" style="font-family: &quot;Open Sans&quot;, sans-serif; font-size: 14px; font-weight: normal; fill: black;">*</text></svg><svg x="1854.096648026273" y="185.4894368701472" width="90.07991610199338" height="499.6281395263605"><path d="M8,26L32.53995805099669,26Q42.53995805099669,26,42.53995805099669,36L42.53995805099669,463.6281395263605Q42.53995805099669,473.6281395263605,52.53995805099669,473.6281395263605L77.07991610199338,473.6281395263605L52.53995805099669,473.6281395263605Q42.53995805099669,473.6281395263605,42.53995805099669,463.6281395263605L42.53995805099669,36Q42.53995805099669,26,32.53995805099669,26L8,26L8,26M8,22L18,26L8,30M67.07991610199338,469.6281395263605L67.07991610199338,477.6281395263605" fill="none" stroke="#619BCC" stroke-width="2"></path><text x="11" y="23" style="font-family: &quot;Open Sans&quot;, sans-serif; font-size: 14px; font-weight: normal; fill: black;">*</text><text x="66.07503328949338" y="470.6281395263605" style="font-family: &quot;Open Sans&quot;, sans-serif; font-size: 14px; font-weight: normal; fill: black;">1</text></svg><svg x="252.05956174777384" y="202.6216783569189" width="384.7346852295001" height="52.354530815171216"><path d="M8,26L189.69007720716445,26Q189.86734261475004,26,189.86734261475004,26.177265407585608L189.86734261475004,26.177265407585608Q189.86734261475004,26.354530815171216,190.04460802233564,26.354530815171216L371.7346852295001,26.354530815171216L190.04460802233564,26.354530815171216Q189.86734261475004,26.354530815171216,189.86734261475004,26.177265407585608L189.86734261475004,26.177265407585608Q189.86734261475004,26,189.69007720716445,26L8,26L8,26M18,22L18,30M371.7346852295001,22.354530815171216L361.7346852295001,26.354530815171216L371.7346852295001,30.354530815171216" fill="none" stroke="#619BCC" stroke-width="2"></path><text x="11" y="23" style="font-family: &quot;Open Sans&quot;, sans-serif; font-size: 14px; font-weight: normal; fill: black;">1</text><text x="361.0237477295001" y="23.354530815171216" style="font-family: &quot;Open Sans&quot;, sans-serif; font-size: 14px; font-weight: normal; fill: black;">*</text></svg><svg x="812.493465727274" y="235.97620917209008" width="410.3986780495926" height="168.78052623829566"><path d="M8,26L192.6993390247963,26Q202.6993390247963,26,202.6993390247963,36L202.6993390247963,132.78052623829566Q202.6993390247963,142.78052623829566,212.6993390247963,142.78052623829566L397.3986780495926,142.78052623829566L212.6993390247963,142.78052623829566Q202.6993390247963,142.78052623829566,202.6993390247963,132.78052623829566L202.6993390247963,36Q202.6993390247963,26,192.6993390247963,26L8,26L8,26M8,22L18,26L8,30M387.3986780495926,138.78052623829566L387.3986780495926,146.78052623829566" fill="none" stroke="#619BCC" stroke-width="2"></path><text x="11" y="23" style="font-family: &quot;Open Sans&quot;, sans-serif; font-size: 14px; font-weight: normal; fill: black;">*</text><text x="386.3937952370926" y="139.78052623829566" style="font-family: &quot;Open Sans&quot;, sans-serif; font-size: 14px; font-weight: normal; fill: black;">1</text></svg><svg x="252.05956174777384" y="202.6216783569189" width="343.44906648087306" height="270.0208582544508"><path d="M8,26L159.22453324043653,26Q169.22453324043653,26,169.22453324043653,36L169.22453324043653,234.02085825445081Q169.22453324043653,244.02085825445081,179.22453324043653,244.02085825445081L330.44906648087306,244.02085825445081L179.22453324043653,244.02085825445081Q169.22453324043653,244.02085825445081,169.22453324043653,234.02085825445081L169.22453324043653,36Q169.22453324043653,26,159.22453324043653,26L8,26L8,26M18,22L18,30M330.44906648087306,240.02085825445081L320.44906648087306,244.02085825445081L330.44906648087306,248.02085825445081" fill="none" stroke="#619BCC" stroke-width="2"></path><text x="11" y="23" style="font-family: &quot;Open Sans&quot;, sans-serif; font-size: 14px; font-weight: normal; fill: black;">1</text><text x="319.73812898087306" y="241.02085825445081" style="font-family: &quot;Open Sans&quot;, sans-serif; font-size: 14px; font-weight: normal; fill: black;">*</text></svg><svg x="782.7224954161468" y="453.6425366113697" width="214.23150981864478" height="107.06738830158233"><path d="M8,26L94.61575490932239,26Q104.61575490932239,26,104.61575490932239,36L104.61575490932239,71.06738830158233Q104.61575490932239,81.06738830158233,114.61575490932239,81.06738830158233L201.23150981864478,81.06738830158233L114.61575490932239,81.06738830158233Q104.61575490932239,81.06738830158233,104.61575490932239,71.06738830158233L104.61575490932239,36Q104.61575490932239,26,94.61575490932239,26L8,26L8,26M8,22L18,26L8,30M191.23150981864478,77.06738830158233L191.23150981864478,85.06738830158233" fill="none" stroke="#619BCC" stroke-width="2"></path><text x="11" y="23" style="font-family: &quot;Open Sans&quot;, sans-serif; font-size: 14px; font-weight: normal; fill: black;">*</text><text x="190.22662700614478" y="78.06738830158233" style="font-family: &quot;Open Sans&quot;, sans-serif; font-size: 14px; font-weight: normal; fill: black;">1</text></svg><svg x="52.06151487277387" y="179.1216783569189"><rect x="0" y="0" width="207.998046875" height="33" fill="#316896"></rect><text x="10" y="19.75" style="font-family: &quot;Open Sans&quot;, sans-serif; font-size: 13px; font-weight: bold; fill: rgb(255, 255, 255);">definition</text></svg><svg x="52.06151487277387" y="212.1216783569189"><rect x="0" y="0" width="207.998046875" height="33" fill="#DEECF3"></rect><text x="10" y="19.75" style="font-family: &quot;Open Sans&quot;, sans-serif; font-size: 13px; font-weight: bold; fill: black;">id</text><text x="147.8642578125" y="19.75" style="font-family: &quot;Open Sans&quot;, sans-serif; font-size: 13px; font-weight: bold; fill: black;">varchar</text></svg><svg x="52.06151487277387" y="245.1216783569189"><rect x="0" y="0" width="207.998046875" height="33" fill="#F2F2F2"></rect><text x="10" y="19.75" style="font-family: &quot;Open Sans&quot;, sans-serif; font-size: 13px; fill: rgb(111, 111, 111);">class</text><text x="152.2314453125" y="19.75" style="font-family: &quot;Open Sans&quot;, sans-serif; font-size: 13px; fill: rgb(111, 111, 111);">varchar</text></svg><svg x="52.06151487277387" y="278.1216783569189"><rect x="0" y="0" width="207.998046875" height="33" fill="#F2F2F2"></rect><text x="10" y="19.75" style="font-family: &quot;Open Sans&quot;, sans-serif; font-size: 13px; fill: rgb(111, 111, 111);">title</text><text x="152.2314453125" y="19.75" style="font-family: &quot;Open Sans&quot;, sans-serif; font-size: 13px; fill: rgb(111, 111, 111);">varchar</text></svg><svg x="52.06151487277387" y="311.1216783569189"><rect x="0" y="0" width="207.998046875" height="33" fill="#F2F2F2"></rect><text x="10" y="19.75" style="font-family: &quot;Open Sans&quot;, sans-serif; font-size: 13px; fill: rgb(111, 111, 111);">description</text><text x="152.2314453125" y="19.75" style="font-family: &quot;Open Sans&quot;, sans-serif; font-size: 13px; fill: rgb(111, 111, 111);">varchar</text></svg><svg x="52.06151487277387" y="344.1216783569189"><rect x="0" y="0" width="207.998046875" height="33" fill="#F2F2F2"></rect><text x="10" y="19.75" style="font-family: &quot;Open Sans&quot;, sans-serif; font-size: 13px; fill: rgb(111, 111, 111);">version</text><text x="155.138671875" y="19.75" style="font-family: &quot;Open Sans&quot;, sans-serif; font-size: 13px; fill: rgb(111, 111, 111);">integer</text></svg><svg x="52.06151487277387" y="377.1216783569189"><rect x="0" y="0" width="207.998046875" height="33" fill="#F2F2F2"></rect><text x="10" y="19.75" style="font-family: &quot;Open Sans&quot;, sans-serif; font-size: 13px; fill: rgb(111, 111, 111);">isDeprecated</text><text x="148.6259765625" y="19.75" style="font-family: &quot;Open Sans&quot;, sans-serif; font-size: 13px; fill: rgb(111, 111, 111);">boolean</text></svg><svg x="52.06151487277387" y="410.1216783569189"><rect x="0" y="0" width="207.998046875" height="33" fill="#F2F2F2"></rect><text x="10" y="19.75" style="font-family: &quot;Open Sans&quot;, sans-serif; font-size: 13px; fill: rgb(111, 111, 111);">cirteria_tree</text><text x="172.72802734375" y="19.75" style="font-family: &quot;Open Sans&quot;, sans-serif; font-size: 13px; fill: rgb(111, 111, 111);">json</text></svg><svg x="1100.3531012987958" y="0"><rect x="0" y="0" width="154.08740234375" height="33" fill="#316896"></rect><text x="10" y="19.75" style="font-family: &quot;Open Sans&quot;, sans-serif; font-size: 13px; font-weight: bold; fill: rgb(255, 255, 255);">cve</text></svg><svg x="1100.3531012987958" y="33"><rect x="0" y="0" width="154.08740234375" height="33" fill="#DEECF3"></rect><text x="10" y="19.75" style="font-family: &quot;Open Sans&quot;, sans-serif; font-size: 13px; font-weight: bold; fill: black;">id</text><text x="97.32421875" y="19.75" style="font-family: &quot;Open Sans&quot;, sans-serif; font-size: 13px; font-weight: bold; fill: black;">integer</text></svg><svg x="1100.3531012987958" y="66"><rect x="0" y="0" width="154.08740234375" height="33" fill="#DEECF3"></rect><text x="10" y="19.75" style="font-family: &quot;Open Sans&quot;, sans-serif; font-size: 13px; fill: rgb(111, 111, 111);">cveid</text><text x="98.32080078125" y="19.75" style="font-family: &quot;Open Sans&quot;, sans-serif; font-size: 13px; fill: rgb(111, 111, 111);">varchar</text></svg><svg x="576.1323567508794" y="3.7854947464483075"><rect x="0" y="0" width="201.28857421875" height="33" fill="#316896"></rect><text x="10" y="19.75" style="font-family: &quot;Open Sans&quot;, sans-serif; font-size: 13px; font-weight: bold; fill: rgb(255, 255, 255);">definition_cve</text></svg><svg x="576.1323567508794" y="36.78549474644831"><rect x="0" y="0" width="201.28857421875" height="33" fill="#DEECF3"></rect><text x="10" y="19.75" style="font-family: &quot;Open Sans&quot;, sans-serif; font-size: 13px; font-weight: bold; fill: black;">definition_id</text><text x="141.15478515625" y="19.75" style="font-family: &quot;Open Sans&quot;, sans-serif; font-size: 13px; font-weight: bold; fill: black;">varchar</text></svg><svg x="576.1323567508794" y="69.78549474644831"><rect x="0" y="0" width="201.28857421875" height="33" fill="#DEECF3"></rect><text x="10" y="19.75" style="font-family: &quot;Open Sans&quot;, sans-serif; font-size: 13px; font-weight: bold; fill: black;">cveid</text><text x="141.15478515625" y="19.75" style="font-family: &quot;Open Sans&quot;, sans-serif; font-size: 13px; font-weight: bold; fill: black;">varchar</text></svg><svg x="1473.761984644766" y="561.3237195257973"><rect x="0" y="0" width="224.99072265625" height="33" fill="#316896"></rect><text x="10" y="19.75" style="font-family: &quot;Open Sans&quot;, sans-serif; font-size: 13px; font-weight: bold; fill: rgb(255, 255, 255);">oval_test</text></svg><svg x="1473.761984644766" y="594.3237195257973"><rect x="0" y="0" width="224.99072265625" height="33" fill="#F2F2F2"></rect><text x="10" y="19.75" style="font-family: &quot;Open Sans&quot;, sans-serif; font-size: 13px; font-weight: bold; fill: black;">id</text><text x="164.85693359375" y="19.75" style="font-family: &quot;Open Sans&quot;, sans-serif; font-size: 13px; font-weight: bold; fill: black;">varchar</text></svg><svg x="1473.761984644766" y="627.3237195257973"><rect x="0" y="0" width="224.99072265625" height="33" fill="#DEECF3"></rect><text x="10" y="19.75" style="font-family: &quot;Open Sans&quot;, sans-serif; font-size: 13px; fill: rgb(111, 111, 111);">object_id</text><text x="169.22412109375" y="19.75" style="font-family: &quot;Open Sans&quot;, sans-serif; font-size: 13px; fill: rgb(111, 111, 111);">varchar</text></svg><svg x="1473.761984644766" y="660.3237195257973"><rect x="0" y="0" width="224.99072265625" height="33" fill="#DEECF3"></rect><text x="10" y="19.75" style="font-family: &quot;Open Sans&quot;, sans-serif; font-size: 13px; fill: rgb(111, 111, 111);">state_id</text><text x="169.22412109375" y="19.75" style="font-family: &quot;Open Sans&quot;, sans-serif; font-size: 13px; fill: rgb(111, 111, 111);">varchar</text></svg><svg x="1473.761984644766" y="693.3237195257973"><rect x="0" y="0" width="224.99072265625" height="33" fill="#F2F2F2"></rect><text x="10" y="19.75" style="font-family: &quot;Open Sans&quot;, sans-serif; font-size: 13px; fill: rgb(111, 111, 111);">comment</text><text x="169.22412109375" y="19.75" style="font-family: &quot;Open Sans&quot;, sans-serif; font-size: 13px; fill: rgb(111, 111, 111);">varchar</text></svg><svg x="1473.761984644766" y="726.3237195257973"><rect x="0" y="0" width="224.99072265625" height="33" fill="#F2F2F2"></rect><text x="10" y="19.75" style="font-family: &quot;Open Sans&quot;, sans-serif; font-size: 13px; fill: rgb(111, 111, 111);">check_existence</text><text x="169.22412109375" y="19.75" style="font-family: &quot;Open Sans&quot;, sans-serif; font-size: 13px; fill: rgb(111, 111, 111);">varchar</text></svg><svg x="1473.761984644766" y="759.3237195257973"><rect x="0" y="0" width="224.99072265625" height="33" fill="#F2F2F2"></rect><text x="10" y="19.75" style="font-family: &quot;Open Sans&quot;, sans-serif; font-size: 13px; fill: rgb(111, 111, 111);">check</text><text x="169.22412109375" y="19.75" style="font-family: &quot;Open Sans&quot;, sans-serif; font-size: 13px; fill: rgb(111, 111, 111);">varchar</text></svg><svg x="1473.761984644766" y="792.3237195257973"><rect x="0" y="0" width="224.99072265625" height="33" fill="#F2F2F2"></rect><text x="10" y="19.75" style="font-family: &quot;Open Sans&quot;, sans-serif; font-size: 13px; fill: rgb(111, 111, 111);">state_operator</text><text x="169.22412109375" y="19.75" style="font-family: &quot;Open Sans&quot;, sans-serif; font-size: 13px; fill: rgb(111, 111, 111);">varchar</text></svg><svg x="1473.761984644766" y="825.3237195257973"><rect x="0" y="0" width="224.99072265625" height="33" fill="#F2F2F2"></rect><text x="10" y="19.75" style="font-family: &quot;Open Sans&quot;, sans-serif; font-size: 13px; fill: rgb(111, 111, 111);">isRPM</text><text x="165.61865234375" y="19.75" style="font-family: &quot;Open Sans&quot;, sans-serif; font-size: 13px; fill: rgb(111, 111, 111);">boolean</text></svg><svg x="1582.0823083641628" y="318.31407030137876"><rect x="0" y="0" width="182.2646484375" height="33" fill="#316896"></rect><text x="10" y="19.75" style="font-family: &quot;Open Sans&quot;, sans-serif; font-size: 13px; font-weight: bold; fill: rgb(255, 255, 255);">oval_object</text></svg><svg x="1582.0823083641628" y="351.31407030137876"><rect x="0" y="0" width="182.2646484375" height="33" fill="#DEECF3"></rect><text x="10" y="19.75" style="font-family: &quot;Open Sans&quot;, sans-serif; font-size: 13px; font-weight: bold; fill: black;">id</text><text x="122.130859375" y="19.75" style="font-family: &quot;Open Sans&quot;, sans-serif; font-size: 13px; font-weight: bold; fill: black;">varchar</text></svg><svg x="1582.0823083641628" y="384.31407030137876"><rect x="0" y="0" width="182.2646484375" height="33" fill="#F2F2F2"></rect><text x="10" y="19.75" style="font-family: &quot;Open Sans&quot;, sans-serif; font-size: 13px; fill: rgb(111, 111, 111);">name</text><text x="126.498046875" y="19.75" style="font-family: &quot;Open Sans&quot;, sans-serif; font-size: 13px; fill: rgb(111, 111, 111);">varchar</text></svg><svg x="1582.0823083641628" y="417.31407030137876"><rect x="0" y="0" width="182.2646484375" height="33" fill="#F2F2F2"></rect><text x="10" y="19.75" style="font-family: &quot;Open Sans&quot;, sans-serif; font-size: 13px; fill: rgb(111, 111, 111);">comment</text><text x="126.498046875" y="19.75" style="font-family: &quot;Open Sans&quot;, sans-serif; font-size: 13px; fill: rgb(111, 111, 111);">varchar</text></svg><svg x="1582.0823083641628" y="450.31407030137876"><rect x="0" y="0" width="182.2646484375" height="33" fill="#F2F2F2"></rect><text x="10" y="19.75" style="font-family: &quot;Open Sans&quot;, sans-serif; font-size: 13px; fill: rgb(111, 111, 111);">isRPM</text><text x="122.892578125" y="19.75" style="font-family: &quot;Open Sans&quot;, sans-serif; font-size: 13px; fill: rgb(111, 111, 111);">boolean</text></svg><svg x="584.877768150602" y="628.875621887423"><rect x="0" y="0" width="241.3486328125" height="33" fill="#316896"></rect><text x="10" y="19.75" style="font-family: &quot;Open Sans&quot;, sans-serif; font-size: 13px; font-weight: bold; fill: rgb(255, 255, 255);">oval_state</text></svg><svg x="584.877768150602" y="661.875621887423"><rect x="0" y="0" width="241.3486328125" height="33" fill="#DEECF3"></rect><text x="10" y="19.75" style="font-family: &quot;Open Sans&quot;, sans-serif; font-size: 13px; font-weight: bold; fill: black;">id</text><text x="181.21484375" y="19.75" style="font-family: &quot;Open Sans&quot;, sans-serif; font-size: 13px; font-weight: bold; fill: black;">varchar</text></svg><svg x="584.877768150602" y="694.875621887423"><rect x="0" y="0" width="241.3486328125" height="33" fill="#F2F2F2"></rect><text x="10" y="19.75" style="font-family: &quot;Open Sans&quot;, sans-serif; font-size: 13px; fill: rgb(111, 111, 111);">operator</text><text x="185.58203125" y="19.75" style="font-family: &quot;Open Sans&quot;, sans-serif; font-size: 13px; fill: rgb(111, 111, 111);">varchar</text></svg><svg x="584.877768150602" y="727.875621887423"><rect x="0" y="0" width="241.3486328125" height="33" fill="#F2F2F2"></rect><text x="10" y="19.75" style="font-family: &quot;Open Sans&quot;, sans-serif; font-size: 13px; fill: rgb(111, 111, 111);">comment</text><text x="185.58203125" y="19.75" style="font-family: &quot;Open Sans&quot;, sans-serif; font-size: 13px; fill: rgb(111, 111, 111);">varchar</text></svg><svg x="584.877768150602" y="760.875621887423"><rect x="0" y="0" width="241.3486328125" height="33" fill="#DEECF3"></rect><text x="10" y="19.75" style="font-family: &quot;Open Sans&quot;, sans-serif; font-size: 13px; fill: rgb(111, 111, 111);">package_evr_id</text><text x="188.4892578125" y="19.75" style="font-family: &quot;Open Sans&quot;, sans-serif; font-size: 13px; fill: rgb(111, 111, 111);">integer</text></svg><svg x="584.877768150602" y="793.875621887423"><rect x="0" y="0" width="241.3486328125" height="33" fill="#DEECF3"></rect><text x="10" y="19.75" style="font-family: &quot;Open Sans&quot;, sans-serif; font-size: 13px; fill: rgb(111, 111, 111);">package_arch_Id</text><text x="188.4892578125" y="19.75" style="font-family: &quot;Open Sans&quot;, sans-serif; font-size: 13px; fill: rgb(111, 111, 111);">integer</text></svg><svg x="584.877768150602" y="826.875621887423"><rect x="0" y="0" width="241.3486328125" height="33" fill="#DEECF3"></rect><text x="10" y="19.75" style="font-family: &quot;Open Sans&quot;, sans-serif; font-size: 13px; fill: rgb(111, 111, 111);">package_version_id</text><text x="188.4892578125" y="19.75" style="font-family: &quot;Open Sans&quot;, sans-serif; font-size: 13px; fill: rgb(111, 111, 111);">integer</text></svg><svg x="584.877768150602" y="859.875621887423"><rect x="0" y="0" width="241.3486328125" height="33" fill="#F2F2F2"></rect><text x="10" y="19.75" style="font-family: &quot;Open Sans&quot;, sans-serif; font-size: 13px; fill: rgb(111, 111, 111);">isRPM</text><text x="181.9765625" y="19.75" style="font-family: &quot;Open Sans&quot;, sans-serif; font-size: 13px; fill: rgb(111, 111, 111);">boolean</text></svg><svg x="0" y="556.0400224910312"><rect x="0" y="0" width="184.04833984375" height="33" fill="#316896"></rect><text x="10" y="19.75" style="font-family: &quot;Open Sans&quot;, sans-serif; font-size: 13px; font-weight: bold; fill: rgb(255, 255, 255);">oval_package_evr</text></svg><svg x="0" y="589.0400224910312"><rect x="0" y="0" width="184.04833984375" height="33" fill="#DEECF3"></rect><text x="10" y="19.75" style="font-family: &quot;Open Sans&quot;, sans-serif; font-size: 13px; font-weight: bold; fill: black;">id</text><text x="127.28515625" y="19.75" style="font-family: &quot;Open Sans&quot;, sans-serif; font-size: 13px; font-weight: bold; fill: black;">integer</text></svg><svg x="0" y="622.0400224910312"><rect x="0" y="0" width="184.04833984375" height="33" fill="#F2F2F2"></rect><text x="10" y="19.75" style="font-family: &quot;Open Sans&quot;, sans-serif; font-size: 13px; fill: rgb(111, 111, 111);">datatype</text><text x="128.28173828125" y="19.75" style="font-family: &quot;Open Sans&quot;, sans-serif; font-size: 13px; fill: rgb(111, 111, 111);">varchar</text></svg><svg x="0" y="655.0400224910312"><rect x="0" y="0" width="184.04833984375" height="33" fill="#F2F2F2"></rect><text x="10" y="19.75" style="font-family: &quot;Open Sans&quot;, sans-serif; font-size: 13px; fill: rgb(111, 111, 111);">evr</text><text x="128.28173828125" y="19.75" style="font-family: &quot;Open Sans&quot;, sans-serif; font-size: 13px; fill: rgb(111, 111, 111);">varchar</text></svg><svg x="0" y="688.0400224910312"><rect x="0" y="0" width="184.04833984375" height="33" fill="#F2F2F2"></rect><text x="10" y="19.75" style="font-family: &quot;Open Sans&quot;, sans-serif; font-size: 13px; fill: rgb(111, 111, 111);">operation</text><text x="128.28173828125" y="19.75" style="font-family: &quot;Open Sans&quot;, sans-serif; font-size: 13px; fill: rgb(111, 111, 111);">varchar</text></svg><svg x="1048.4884697926705" y="821.1509546169177"><rect x="0" y="0" width="190.63720703125" height="33" fill="#316896"></rect><text x="10" y="19.75" style="font-family: &quot;Open Sans&quot;, sans-serif; font-size: 13px; font-weight: bold; fill: rgb(255, 255, 255);">oval_package_arch</text></svg><svg x="1048.4884697926705" y="854.1509546169177"><rect x="0" y="0" width="190.63720703125" height="33" fill="#DEECF3"></rect><text x="10" y="19.75" style="font-family: &quot;Open Sans&quot;, sans-serif; font-size: 13px; font-weight: bold; fill: black;">id</text><text x="133.8740234375" y="19.75" style="font-family: &quot;Open Sans&quot;, sans-serif; font-size: 13px; font-weight: bold; fill: black;">integer</text></svg><svg x="1048.4884697926705" y="887.1509546169177"><rect x="0" y="0" width="190.63720703125" height="33" fill="#F2F2F2"></rect><text x="10" y="19.75" style="font-family: &quot;Open Sans&quot;, sans-serif; font-size: 13px; fill: rgb(111, 111, 111);">arch</text><text x="134.87060546875" y="19.75" style="font-family: &quot;Open Sans&quot;, sans-serif; font-size: 13px; fill: rgb(111, 111, 111);">varchar</text></svg><svg x="1048.4884697926705" y="920.1509546169177"><rect x="0" y="0" width="190.63720703125" height="33" fill="#F2F2F2"></rect><text x="10" y="19.75" style="font-family: &quot;Open Sans&quot;, sans-serif; font-size: 13px; fill: rgb(111, 111, 111);">operation</text><text x="134.87060546875" y="19.75" style="font-family: &quot;Open Sans&quot;, sans-serif; font-size: 13px; fill: rgb(111, 111, 111);">varchar</text></svg><svg x="249.9287225818843" y="987.8428037052151"><rect x="0" y="0" width="209.65478515625" height="33" fill="#316896"></rect><text x="10" y="19.75" style="font-family: &quot;Open Sans&quot;, sans-serif; font-size: 13px; font-weight: bold; fill: rgb(255, 255, 255);">oval_package_version</text></svg><svg x="249.9287225818843" y="1020.8428037052151"><rect x="0" y="0" width="209.65478515625" height="33" fill="#DEECF3"></rect><text x="10" y="19.75" style="font-family: &quot;Open Sans&quot;, sans-serif; font-size: 13px; font-weight: bold; fill: black;">id</text><text x="152.8916015625" y="19.75" style="font-family: &quot;Open Sans&quot;, sans-serif; font-size: 13px; font-weight: bold; fill: black;">integer</text></svg><svg x="249.9287225818843" y="1053.8428037052151"><rect x="0" y="0" width="209.65478515625" height="33" fill="#F2F2F2"></rect><text x="10" y="19.75" style="font-family: &quot;Open Sans&quot;, sans-serif; font-size: 13px; fill: rgb(111, 111, 111);">version</text><text x="153.88818359375" y="19.75" style="font-family: &quot;Open Sans&quot;, sans-serif; font-size: 13px; fill: rgb(111, 111, 111);">varchar</text></svg><svg x="249.9287225818843" y="1086.8428037052151"><rect x="0" y="0" width="209.65478515625" height="33" fill="#F2F2F2"></rect><text x="10" y="19.75" style="font-family: &quot;Open Sans&quot;, sans-serif; font-size: 13px; fill: rgb(111, 111, 111);">operation</text><text x="153.88818359375" y="19.75" style="font-family: &quot;Open Sans&quot;, sans-serif; font-size: 13px; fill: rgb(111, 111, 111);">varchar</text></svg><svg x="1209.8921437768665" y="329.2567354103858"><rect x="0" y="0" width="156.9755859375" height="33" fill="#316896"></rect><text x="10" y="19.75" style="font-family: &quot;Open Sans&quot;, sans-serif; font-size: 13px; font-weight: bold; fill: rgb(255, 255, 255);">product</text></svg><svg x="1209.8921437768665" y="362.2567354103858"><rect x="0" y="0" width="156.9755859375" height="33" fill="#DEECF3"></rect><text x="10" y="19.75" style="font-family: &quot;Open Sans&quot;, sans-serif; font-size: 13px; font-weight: bold; fill: black;">id</text><text x="96.841796875" y="19.75" style="font-family: &quot;Open Sans&quot;, sans-serif; font-size: 13px; font-weight: bold; fill: black;">varchar</text></svg><svg x="1209.8921437768665" y="395.2567354103858"><rect x="0" y="0" width="156.9755859375" height="33" fill="#F2F2F2"></rect><text x="10" y="19.75" style="font-family: &quot;Open Sans&quot;, sans-serif; font-size: 13px; fill: rgb(111, 111, 111);">name</text><text x="101.208984375" y="19.75" style="font-family: &quot;Open Sans&quot;, sans-serif; font-size: 13px; fill: rgb(111, 111, 111);">varchar</text></svg><svg x="623.794246977274" y="179.4762091720901"><rect x="0" y="0" width="196.69921875" height="33" fill="#316896"></rect><text x="10" y="19.75" style="font-family: &quot;Open Sans&quot;, sans-serif; font-size: 13px; font-weight: bold; fill: rgb(255, 255, 255);">definition_products</text></svg><svg x="623.794246977274" y="212.4762091720901"><rect x="0" y="0" width="196.69921875" height="33" fill="#DEECF3"></rect><text x="10" y="19.75" style="font-family: &quot;Open Sans&quot;, sans-serif; font-size: 13px; font-weight: bold; fill: black;">definition_id</text><text x="148.83544921875" y="19.75" style="font-family: &quot;Open Sans&quot;, sans-serif; font-size: 13px; font-weight: bold; fill: black;">string</text></svg><svg x="623.794246977274" y="245.4762091720901"><rect x="0" y="0" width="196.69921875" height="33" fill="#DEECF3"></rect><text x="10" y="19.75" style="font-family: &quot;Open Sans&quot;, sans-serif; font-size: 13px; font-weight: bold; fill: black;">product_id</text><text x="136.5654296875" y="19.75" style="font-family: &quot;Open Sans&quot;, sans-serif; font-size: 13px; font-weight: bold; fill: black;">varchar</text></svg><svg x="623.794246977274" y="278.4762091720901"><rect x="0" y="0" width="196.69921875" height="33" fill="#F2F2F2"></rect><text x="10" y="19.75" style="font-family: &quot;Open Sans&quot;, sans-serif; font-size: 13px; fill: rgb(111, 111, 111);">family</text><text x="140.9326171875" y="19.75" style="font-family: &quot;Open Sans&quot;, sans-serif; font-size: 13px; fill: rgb(111, 111, 111);">varchar</text></svg><svg x="983.9540052347916" y="485.20992491295203"><rect x="0" y="0" width="163.45654296875" height="33" fill="#316896"></rect><text x="10" y="19.75" style="font-family: &quot;Open Sans&quot;, sans-serif; font-size: 13px; font-weight: bold; fill: rgb(255, 255, 255);">reference</text></svg><svg x="983.9540052347916" y="518.209924912952"><rect x="0" y="0" width="163.45654296875" height="33" fill="#DEECF3"></rect><text x="10" y="19.75" style="font-family: &quot;Open Sans&quot;, sans-serif; font-size: 13px; font-weight: bold; fill: black;">id</text><text x="103.32275390625" y="19.75" style="font-family: &quot;Open Sans&quot;, sans-serif; font-size: 13px; font-weight: bold; fill: black;">varchar</text></svg><svg x="983.9540052347916" y="551.209924912952"><rect x="0" y="0" width="163.45654296875" height="33" fill="#F2F2F2"></rect><text x="10" y="19.75" style="font-family: &quot;Open Sans&quot;, sans-serif; font-size: 13px; fill: rgb(111, 111, 111);">url</text><text x="107.68994140625" y="19.75" style="font-family: &quot;Open Sans&quot;, sans-serif; font-size: 13px; fill: rgb(111, 111, 111);">varchar</text></svg><svg x="983.9540052347916" y="584.209924912952"><rect x="0" y="0" width="163.45654296875" height="33" fill="#F2F2F2"></rect><text x="10" y="19.75" style="font-family: &quot;Open Sans&quot;, sans-serif; font-size: 13px; fill: rgb(111, 111, 111);">source</text><text x="107.68994140625" y="19.75" style="font-family: &quot;Open Sans&quot;, sans-serif; font-size: 13px; fill: rgb(111, 111, 111);">varchar</text></svg><svg x="582.5086282286469" y="397.1425366113697"><rect x="0" y="0" width="208.2138671875" height="33" fill="#316896"></rect><text x="10" y="19.75" style="font-family: &quot;Open Sans&quot;, sans-serif; font-size: 13px; font-weight: bold; fill: rgb(255, 255, 255);">definition_references</text></svg><svg x="582.5086282286469" y="430.1425366113697"><rect x="0" y="0" width="208.2138671875" height="33" fill="#DEECF3"></rect><text x="10" y="19.75" style="font-family: &quot;Open Sans&quot;, sans-serif; font-size: 13px; font-weight: bold; fill: black;">definition_id</text><text x="148.080078125" y="19.75" style="font-family: &quot;Open Sans&quot;, sans-serif; font-size: 13px; font-weight: bold; fill: black;">varchar</text></svg><svg x="582.5086282286469" y="463.1425366113697"><rect x="0" y="0" width="208.2138671875" height="33" fill="#DEECF3"></rect><text x="10" y="19.75" style="font-family: &quot;Open Sans&quot;, sans-serif; font-size: 13px; font-weight: bold; fill: black;">reference_id</text><text x="148.080078125" y="19.75" style="font-family: &quot;Open Sans&quot;, sans-serif; font-size: 13px; font-weight: bold; fill: black;">varchar</text></svg><svg x="1349.2283938083365" y="958.2896978027068"><rect x="0" y="0" width="226.92041015625" height="33" fill="#316896"></rect><text x="10" y="19.75" style="font-family: &quot;Open Sans&quot;, sans-serif; font-size: 13px; font-weight: bold; fill: rgb(255, 255, 255);">oval_file</text></svg><svg x="1349.2283938083365" y="991.2896978027068"><rect x="0" y="0" width="226.92041015625" height="33" fill="#F2F2F2"></rect><text x="10" y="19.75" style="font-family: &quot;Open Sans&quot;, sans-serif; font-size: 13px; font-weight: bold; fill: black;">id</text><text x="170.1572265625" y="19.75" style="font-family: &quot;Open Sans&quot;, sans-serif; font-size: 13px; font-weight: bold; fill: black;">integer</text></svg><svg x="1349.2283938083365" y="1024.2896978027068"><rect x="0" y="0" width="226.92041015625" height="33" fill="#F2F2F2"></rect><text x="10" y="19.75" style="font-family: &quot;Open Sans&quot;, sans-serif; font-size: 13px; fill: rgb(111, 111, 111);">generator_name</text><text x="171.15380859375" y="19.75" style="font-family: &quot;Open Sans&quot;, sans-serif; font-size: 13px; fill: rgb(111, 111, 111);">varchar</text></svg><svg x="1349.2283938083365" y="1057.2896978027068"><rect x="0" y="0" width="226.92041015625" height="33" fill="#F2F2F2"></rect><text x="10" y="19.75" style="font-family: &quot;Open Sans&quot;, sans-serif; font-size: 13px; fill: rgb(111, 111, 111);">generated_at</text><text x="151.62841796875" y="19.75" style="font-family: &quot;Open Sans&quot;, sans-serif; font-size: 13px; fill: rgb(111, 111, 111);">timestamp</text></svg><svg x="1349.2283938083365" y="1090.2896978027068"><rect x="0" y="0" width="226.92041015625" height="33" fill="#F2F2F2"></rect><text x="10" y="19.75" style="font-family: &quot;Open Sans&quot;, sans-serif; font-size: 13px; fill: rgb(111, 111, 111);">schema_version</text><text x="174.638671875" y="19.75" style="font-family: &quot;Open Sans&quot;, sans-serif; font-size: 13px; fill: rgb(111, 111, 111);">double</text></svg><svg x="1349.2283938083365" y="1123.2896978027068"><rect x="0" y="0" width="226.92041015625" height="33" fill="#F2F2F2"></rect><text x="10" y="19.75" style="font-family: &quot;Open Sans&quot;, sans-serif; font-size: 13px; fill: rgb(111, 111, 111);">source</text><text x="171.15380859375" y="19.75" style="font-family: &quot;Open Sans&quot;, sans-serif; font-size: 13px; fill: rgb(111, 111, 111);">varchar</text></svg><svg x="1931.1765641282664" y="609.6175763965077"><rect x="0" y="0" width="198.806640625" height="33" fill="#316896"></rect><text x="10" y="19.75" style="font-family: &quot;Open Sans&quot;, sans-serif; font-size: 13px; font-weight: bold; fill: rgb(255, 255, 255);">vulnerable_package</text></svg><svg x="1931.1765641282664" y="642.6175763965077"><rect x="0" y="0" width="198.806640625" height="33" fill="#DEECF3"></rect><text x="10" y="19.75" style="font-family: &quot;Open Sans&quot;, sans-serif; font-size: 13px; font-weight: bold; fill: black;">id</text><text x="142.04345703125" y="19.75" style="font-family: &quot;Open Sans&quot;, sans-serif; font-size: 13px; font-weight: bold; fill: black;">integer</text></svg><svg x="1931.1765641282664" y="675.6175763965077"><rect x="0" y="0" width="198.806640625" height="33" fill="#F2F2F2"></rect><text x="10" y="19.75" style="font-family: &quot;Open Sans&quot;, sans-serif; font-size: 13px; fill: rgb(111, 111, 111);">name</text><text x="143.0400390625" y="19.75" style="font-family: &quot;Open Sans&quot;, sans-serif; font-size: 13px; fill: rgb(111, 111, 111);">varchar</text></svg><svg x="1931.1765641282664" y="708.6175763965077"><rect x="0" y="0" width="198.806640625" height="33" fill="#F2F2F2"></rect><text x="10" y="19.75" style="font-family: &quot;Open Sans&quot;, sans-serif; font-size: 13px; fill: rgb(111, 111, 111);">fix_version</text><text x="143.0400390625" y="19.75" style="font-family: &quot;Open Sans&quot;, sans-serif; font-size: 13px; fill: rgb(111, 111, 111);">varchar</text></svg><svg x="1598.988249588773" y="95.98943687014719"><rect x="0" y="0" width="263.1083984375" height="33" fill="#316896"></rect><text x="10" y="19.75" style="font-family: &quot;Open Sans&quot;, sans-serif; font-size: 13px; font-weight: bold; fill: rgb(255, 255, 255);">product_vulnerable_packages</text></svg><svg x="1598.988249588773" y="128.9894368701472"><rect x="0" y="0" width="263.1083984375" height="33" fill="#DEECF3"></rect><text x="10" y="19.75" style="font-family: &quot;Open Sans&quot;, sans-serif; font-size: 13px; font-weight: bold; fill: black;">product_id</text><text x="202.974609375" y="19.75" style="font-family: &quot;Open Sans&quot;, sans-serif; font-size: 13px; font-weight: bold; fill: black;">varchar</text></svg><svg x="1598.988249588773" y="161.9894368701472"><rect x="0" y="0" width="263.1083984375" height="33" fill="#DEECF3"></rect><text x="10" y="19.75" style="font-family: &quot;Open Sans&quot;, sans-serif; font-size: 13px; font-weight: bold; fill: black;">cve</text><text x="202.974609375" y="19.75" style="font-family: &quot;Open Sans&quot;, sans-serif; font-size: 13px; font-weight: bold; fill: black;">varchar</text></svg><svg x="1598.988249588773" y="194.9894368701472"><rect x="0" y="0" width="263.1083984375" height="33" fill="#DEECF3"></rect><text x="10" y="19.75" style="font-family: &quot;Open Sans&quot;, sans-serif; font-size: 13px; font-weight: bold; fill: black;">vulnerable_package_id</text><text x="206.34521484375" y="19.75" style="font-family: &quot;Open Sans&quot;, sans-serif; font-size: 13px; font-weight: bold; fill: black;">integer</text></svg></svg>