<?xml version="1.0" encoding="UTF-8" standalone="no"?>
<!-- Created with Inkscape (http://www.inkscape.org/) -->

<svg
   xmlns:dc="http://purl.org/dc/elements/1.1/"
   xmlns:cc="http://creativecommons.org/ns#"
   xmlns:rdf="http://www.w3.org/1999/02/22-rdf-syntax-ns#"
   xmlns:svg="http://www.w3.org/2000/svg"
   xmlns="http://www.w3.org/2000/svg"
   xmlns:sodipodi="http://sodipodi.sourceforge.net/DTD/sodipodi-0.dtd"
   xmlns:inkscape="http://www.inkscape.org/namespaces/inkscape"
   version="1.1"
   id="svg2"
   xml:space="preserve"
   width="2402.6667"
   height="1008"
   viewBox="0 0 2402.6667 1008"
   sodipodi:docname="components.svg"
   inkscape:version="0.92.2 5c3e80d, 2017-08-06"><metadata
     id="metadata8"><rdf:RDF><cc:Work
         rdf:about=""><dc:format>image/svg+xml</dc:format><dc:type
           rdf:resource="http://purl.org/dc/dcmitype/StillImage" /><dc:title></dc:title></cc:Work></rdf:RDF></metadata><defs
     id="defs6"><clipPath
       clipPathUnits="userSpaceOnUse"
       id="clipPath20"><path
         d="M 0,0 H 1802 V 756 H 0 Z"
         id="path18"
         inkscape:connector-curvature="0" /></clipPath></defs><sodipodi:namedview
     pagecolor="#ffffff"
     bordercolor="#666666"
     borderopacity="1"
     objecttolerance="10"
     gridtolerance="10"
     guidetolerance="10"
     inkscape:pageopacity="0"
     inkscape:pageshadow="2"
     inkscape:window-width="2024"
     inkscape:window-height="1058"
     id="namedview4"
     showgrid="false"
     inkscape:zoom="0.42026156"
     inkscape:cx="1475.5525"
     inkscape:cy="260.98"
     inkscape:window-x="114"
     inkscape:window-y="27"
     inkscape:window-maximized="0"
     inkscape:current-layer="g10" /><g
     id="g10"
     inkscape:groupmode="layer"
     inkscape:label="components"
     transform="matrix(1.3333333,0,0,-1.3333333,0,1008)"><g
       id="g12" /><g
       id="g14"><g
         id="g16"
         clip-path="url(#clipPath20)"><path
           d="M 0,0 H 1802 V 756 H 0 Z"
           style="fill:#ffffff;fill-opacity:1;fill-rule:nonzero;stroke:none"
           id="path22"
           inkscape:connector-curvature="0" /><path
           d="M 0,0 H 1802 V 756 H 0 Z"
           style="fill:#ffffff;fill-opacity:1;fill-rule:nonzero;stroke:none"
           id="path24"
           inkscape:connector-curvature="0" /><path
           d="m 499.8098,121.4406 c 58.0765,-27.32368 58.0765,-71.62409 0,-98.94777 -58.0763,-27.323821 -152.2363,-27.323821 -210.3125,0 -58.0765,27.32368 -58.0765,71.62409 0,98.94777 58.0762,27.3238 152.2362,27.3238 210.3125,0"
           style="fill:#ffffff;fill-opacity:1;fill-rule:nonzero;stroke:none"
           id="path26"
           inkscape:connector-curvature="0" /><g
           id="g28"
           transform="matrix(1,0,0,-1,-118,872)"><path
             d="m 617.8098,750.5594 c 58.0765,27.3237 58.0765,71.6241 0,98.9478 -58.0763,27.3238 -152.2363,27.3238 -210.3125,0 -58.0765,-27.3237 -58.0765,-71.6241 0,-98.9478 58.0762,-27.3238 152.2362,-27.3238 210.3125,0"
             style="fill:none;stroke:#000000;stroke-width:2;stroke-linecap:round;stroke-linejoin:round;stroke-miterlimit:10;stroke-dasharray:none;stroke-opacity:1"
             id="path30"
             inkscape:connector-curvature="0" /></g><g
           id="g32"
           transform="matrix(1,0,0,-1,-118,872)"><text
             transform="translate(449.7855,814.5333)"
             style="font-variant:normal;font-weight:300;font-size:39px;font-family:Helvetica;-inkscape-font-specification:Helvetica-Light;writing-mode:lr-tb;fill:#000000;fill-opacity:1;fill-rule:nonzero;stroke:none"
             id="text36"><tspan
               x="0 17.355 39.039001 71.526001 93.209999 114.894"
               y="0"
               sodipodi:role="line"
               id="tspan34">Tomcat</tspan></text>
</g><path
           d="M 1,254.5628 H 363.2642 V 394.4962 H 1 Z"
           style="fill:#ffffff;fill-opacity:1;fill-rule:nonzero;stroke:none"
           id="path38"
           inkscape:connector-curvature="0" /><g
           id="g40"
           transform="matrix(1,0,0,-1,-118,872)"><path
             d="M 119,477.5038 H 481.2642 V 617.4372 H 119 Z"
             style="fill:none;stroke:#000000;stroke-width:2;stroke-linecap:round;stroke-linejoin:round;stroke-miterlimit:10;stroke-dasharray:none;stroke-opacity:1"
             id="path42"
             inkscape:connector-curvature="0" /></g><g
           id="g44"
           transform="matrix(1,0,0,-1,-118,872)"><text
             transform="translate(161.4091,561.9705)"
             style="font-variant:normal;font-weight:300;font-size:39px;font-family:Helvetica;-inkscape-font-specification:Helvetica-Light;writing-mode:lr-tb;fill:#000000;fill-opacity:1;fill-rule:nonzero;stroke:none"
             id="text48"><tspan
               x="0 32.487 54.171001 73.670998 93.170998 114.855 138.68401 160.368 190.71001 212.394 234.078 255.76199"
               y="0"
               sodipodi:role="line"
               id="tspan46">MessageQueue</tspan></text>
</g><path
           d="M 465.1509,254.5628 H 827.4151 V 394.4962 H 465.1509 Z"
           style="fill:#ffffff;fill-opacity:1;fill-rule:nonzero;stroke:none"
           id="path50"
           inkscape:connector-curvature="0" /><g
           id="g52"
           transform="matrix(1,0,0,-1,-118,872)"><path
             d="M 583.1509,477.5038 H 945.4151 V 617.4372 H 583.1509 Z"
             style="fill:none;stroke:#000000;stroke-width:2;stroke-linecap:round;stroke-linejoin:round;stroke-miterlimit:10;stroke-dasharray:none;stroke-opacity:1"
             id="path54"
             inkscape:connector-curvature="0" /></g><g
           id="g56"
           transform="matrix(1,0,0,-1,-118,872)"><text
             transform="translate(627.0225,561.9705)"
             style="font-variant:normal;font-weight:300;font-size:39px;font-family:Helvetica;-inkscape-font-specification:Helvetica-Light;writing-mode:lr-tb;fill:#000000;fill-opacity:1;fill-rule:nonzero;stroke:none"
             id="text60"><tspan
               x="0 23.829 54.171001 78 97.5 119.184 140.868 151.71001 175.539 186.381 198.666 220.35001 242.034"
               y="0"
               sodipodi:role="line"
               id="tspan58">PGEventStream</tspan></text>
</g><path
           d="m 1213.35,240.9107 h 362.2642 V 380.8441 H 1213.35 Z"
           style="fill:#ffffff;fill-opacity:1;fill-rule:nonzero;stroke:none"
           id="path62"
           inkscape:connector-curvature="0" /><g
           id="g64"
           transform="matrix(1,0,0,-1,-118,872)"><path
             d="m 1331.35,491.1558 h 362.264 V 631.0892 H 1331.35 Z"
             style="fill:none;stroke:#000000;stroke-width:2;stroke-linecap:round;stroke-linejoin:round;stroke-miterlimit:10;stroke-dasharray:none;stroke-opacity:1"
             id="path66"
             inkscape:connector-curvature="0" /></g><g
           id="g68"
           transform="matrix(1,0,0,-1,-118,872)"><text
             transform="translate(1414.943,575.6225)"
             style="font-variant:normal;font-weight:300;font-size:39px;font-family:Helvetica;-inkscape-font-specification:Helvetica-Light;writing-mode:lr-tb;fill:#000000;fill-opacity:1;fill-rule:nonzero;stroke:none"
             id="text72"><tspan
               x="0 17.355 39.039001 58.539001 78.039001 99.723 132.21001 153.894 164.73599 173.394"
               y="0"
               sodipodi:role="line"
               id="tspan70">Taskomatic</tspan></text>
</g><path
           d="m 987.964,520.7776 h 362.2642 V 660.711 H 987.964 Z"
           style="fill:#ffffff;fill-opacity:1;fill-rule:nonzero;stroke:none"
           id="path74"
           inkscape:connector-curvature="0" /><g
           id="g76"
           transform="matrix(1,0,0,-1,-118,872)"><path
             d="m 1105.964,211.289 h 362.264 v 139.9334 h -362.264 z"
             style="fill:none;stroke:#000000;stroke-width:2;stroke-linecap:round;stroke-linejoin:round;stroke-miterlimit:10;stroke-dasharray:none;stroke-opacity:1"
             id="path78"
             inkscape:connector-curvature="0" /></g><g
           id="g80"
           transform="matrix(1,0,0,-1,-118,872)"><text
             transform="translate(1148.373,295.7557)"
             style="font-variant:normal;font-weight:300;font-size:39px;font-family:Helvetica;-inkscape-font-specification:Helvetica-Light;writing-mode:lr-tb;fill:#000000;fill-opacity:1;fill-rule:nonzero;stroke:none"
             id="text84"><tspan
               x="0 32.487 54.171001 73.670998 93.170998 114.855 138.68401 160.368 190.71001 212.394 234.078 255.76199"
               y="0"
               sodipodi:role="line"
               id="tspan82">MessageQueue</tspan></text>
</g><path
           d="m 1438.736,614.0666 h 362.2642 V 754 H 1438.736 Z"
           style="fill:#ffffff;fill-opacity:1;fill-rule:nonzero;stroke:none"
           id="path86"
           inkscape:connector-curvature="0" /><g
           id="g88"
           transform="matrix(1,0,0,-1,-118,872)"><path
             d="M 1556.736,118 H 1919 v 139.9334 h -362.264 z"
             style="fill:none;stroke:#000000;stroke-width:2;stroke-linecap:round;stroke-linejoin:round;stroke-miterlimit:10;stroke-dasharray:none;stroke-opacity:1"
             id="path90"
             inkscape:connector-curvature="0" /></g><g
           id="g92"
           transform="matrix(1,0,0,-1,-118,872)"><text
             transform="translate(1576.427,202.4667)"
             style="font-variant:normal;font-weight:300;font-size:39px;font-family:Helvetica;-inkscape-font-specification:Helvetica-Light;writing-mode:lr-tb;fill:#000000;fill-opacity:1;fill-rule:nonzero;stroke:none"
             id="text96"><tspan
               x="0 23.829 36.816002 49.803001 71.487 82.329002 104.013 132.17101 153.855 175.539 197.22301 218.907 247.065 260.052 268.70999 288.20999 309.89401"
               y="0"
               sodipodi:role="line"
               id="tspan94">ErrataCacheDriver</tspan></text>
</g><path
           d="m 1499.638,121.4406 c 58.077,-27.32368 58.077,-71.62409 0,-98.94777 -58.076,-27.323821 -152.236,-27.323821 -210.312,0 -58.077,27.32368 -58.077,71.62409 0,98.94777 58.076,27.3238 152.236,27.3238 210.312,0"
           style="fill:#ffffff;fill-opacity:1;fill-rule:nonzero;stroke:none"
           id="path98"
           inkscape:connector-curvature="0" /><g
           id="g100"
           transform="matrix(1,0,0,-1,-118,872)"><path
             d="m 1617.638,750.5594 c 58.077,27.3237 58.077,71.6241 0,98.9478 -58.076,27.3238 -152.236,27.3238 -210.312,0 -58.077,-27.3237 -58.077,-71.6241 0,-98.9478 58.076,-27.3238 152.236,-27.3238 210.312,0"
             style="fill:none;stroke:#000000;stroke-width:2;stroke-linecap:round;stroke-linejoin:round;stroke-miterlimit:10;stroke-dasharray:none;stroke-opacity:1"
             id="path102"
             inkscape:connector-curvature="0" /></g><g
           id="g104"
           transform="matrix(1,0,0,-1,-118,872)"><text
             transform="translate(1414.943,814.5333)"
             style="font-variant:normal;font-weight:300;font-size:39px;font-family:Helvetica;-inkscape-font-specification:Helvetica-Light;writing-mode:lr-tb;fill:#000000;fill-opacity:1;fill-rule:nonzero;stroke:none"
             id="text108"><tspan
               x="0 17.355 39.039001 58.539001 78.039001 99.723 132.21001 153.894 164.73599 173.394"
               y="0"
               sodipodi:role="line"
               id="tspan106">Taskomatic</tspan></text>
</g><g
           id="g110"
           transform="matrix(1,0,0,-1,-118,872)"><path
             d="M 576.6242,735.8253 684.4738,627.5758"
             style="fill:none;stroke:#000000;stroke-width:2;stroke-linecap:round;stroke-linejoin:round;stroke-miterlimit:10;stroke-dasharray:none;stroke-opacity:1"
             id="path112"
             inkscape:connector-curvature="0" /></g><g
           id="g114"
           transform="matrix(1,0,0,-1,-118,872)"><path
             d="m 691.2494,620.775 -6.7756,6.8008 m -2.5503,-2.5409 9.3259,-4.2599 -4.2253,9.3416"
             style="fill:none;stroke:#000000;stroke-width:2;stroke-linecap:butt;stroke-linejoin:miter;stroke-miterlimit:10;stroke-dasharray:none;stroke-opacity:1"
             id="path116"
             inkscape:connector-curvature="0" /></g><g
           id="g118"
           transform="matrix(1,0,0,-1,-118,872)"><path
             d="M 457.1597,734.0839 368.1533,628.3077"
             style="fill:none;stroke:#000000;stroke-width:2;stroke-linecap:round;stroke-linejoin:round;stroke-miterlimit:10;stroke-dasharray:none;stroke-opacity:1"
             id="path120"
             inkscape:connector-curvature="0" /></g><g
           id="g122"
           transform="matrix(1,0,0,-1,-118,872)"><path
             d="m 361.9724,620.9622 6.1809,7.3455 m -2.7545,2.3179 -3.4264,-9.6634 8.9355,5.0277"
             style="fill:none;stroke:#000000;stroke-width:2;stroke-linecap:butt;stroke-linejoin:miter;stroke-miterlimit:10;stroke-dasharray:none;stroke-opacity:1"
             id="path124"
             inkscape:connector-curvature="0" /></g><g
           id="g126"
           transform="matrix(1,0,0,-1,-118,872)"><path
             d="M 739.5732,476.5038 C 703.3711,382.788 630.1991,229.4917 538.8971,229.4917 c -87.5527,0 -164.365,140.9648 -205.9258,235.1803"
             style="fill:none;stroke:#000000;stroke-width:2;stroke-linecap:round;stroke-linejoin:round;stroke-miterlimit:10;stroke-dasharray:none;stroke-opacity:1"
             id="path128"
             inkscape:connector-curvature="0" /></g><g
           id="g130"
           transform="matrix(1,0,0,-1,-118,872)"><path
             d="m 329.1435,473.4774 3.8272,-8.8041 m 3.3015,1.4352 -7.1287,7.3689 0.5257,-10.2393"
             style="fill:none;stroke:#000000;stroke-width:2;stroke-linecap:butt;stroke-linejoin:miter;stroke-miterlimit:10;stroke-dasharray:none;stroke-opacity:1"
             id="path132"
             inkscape:connector-curvature="0" /></g><g
           id="g134"
           transform="matrix(1,0,0,-1,-118,872)"><path
             d="M 646.4366,768.0656 1317.803,607.6414"
             style="fill:none;stroke:#000000;stroke-width:2;stroke-linecap:round;stroke-linejoin:round;stroke-miterlimit:10;stroke-dasharray:none;stroke-opacity:1"
             id="path136"
             inkscape:connector-curvature="0" /></g><g
           id="g138"
           transform="matrix(1,0,0,-1,-118,872)"><path
             d="m 1327.14,605.4103 -9.337,2.2311 m -0.837,-3.5014 10.174,1.2703 -8.5,5.7325"
             style="fill:none;stroke:#000000;stroke-width:2;stroke-linecap:butt;stroke-linejoin:miter;stroke-miterlimit:10;stroke-dasharray:none;stroke-opacity:1"
             id="path140"
             inkscape:connector-curvature="0" /></g><g
           id="g142"
           transform="matrix(1,0,0,-1,-118,872)"><path
             d="M 1512.482,729.0665 V 644.9893"
             style="fill:none;stroke:#000000;stroke-width:2;stroke-linecap:round;stroke-linejoin:round;stroke-miterlimit:10;stroke-dasharray:none;stroke-opacity:1"
             id="path144"
             inkscape:connector-curvature="0" /></g><g
           id="g146"
           transform="matrix(1,0,0,-1,-118,872)"><path
             d="m 1512.482,635.3893 v 9.6 m -3.6,0 3.6,-9.6 3.6,9.6"
             style="fill:none;stroke:#000000;stroke-width:2;stroke-linecap:butt;stroke-linejoin:miter;stroke-miterlimit:10;stroke-dasharray:none;stroke-opacity:1"
             id="path148"
             inkscape:connector-curvature="0" /></g><g
           id="g150"
           transform="matrix(1,0,0,-1,-118,872)"><path
             d="m 1598.21,490.1558 43.993,-36.4185"
             style="fill:none;stroke:#000000;stroke-width:2;stroke-linecap:round;stroke-linejoin:round;stroke-miterlimit:10;stroke-dasharray:none;stroke-opacity:1"
             id="path152"
             inkscape:connector-curvature="0" /></g><g
           id="g154"
           transform="matrix(1,0,0,-1,-118,872)"><path
             d="m 1649.598,447.6157 -7.395,6.1216 m -2.295,-2.7731 9.69,-3.3485 -5.099,8.8947"
             style="fill:none;stroke:#000000;stroke-width:2;stroke-linecap:butt;stroke-linejoin:miter;stroke-miterlimit:10;stroke-dasharray:none;stroke-opacity:1"
             id="path156"
             inkscape:connector-curvature="0" /></g><g
           id="g158"
           transform="matrix(1,0,0,-1,-118,872)"><path
             d="M 1555.346,490.1558 1688.335,269.9756"
             style="fill:none;stroke:#000000;stroke-width:2;stroke-linecap:round;stroke-linejoin:round;stroke-miterlimit:10;stroke-dasharray:none;stroke-opacity:1"
             id="path160"
             inkscape:connector-curvature="0" /></g><g
           id="g162"
           transform="matrix(1,0,0,-1,-118,872)"><path
             d="m 1693.298,261.7582 -4.963,8.2174 m -3.082,-1.8613 8.045,-6.3561 -1.882,10.0786"
             style="fill:none;stroke:#000000;stroke-width:2;stroke-linecap:butt;stroke-linejoin:miter;stroke-miterlimit:10;stroke-dasharray:none;stroke-opacity:1"
             id="path164"
             inkscape:connector-curvature="0" /></g><path
           d="m 1438.736,427.4887 h 362.2642 V 567.4221 H 1438.736 Z"
           style="fill:#ffffff;fill-opacity:1;fill-rule:nonzero;stroke:none"
           id="path166"
           inkscape:connector-curvature="0" /><g
           id="g168"
           transform="matrix(1,0,0,-1,-118,872)"><path
             d="M 1556.736,304.5779 H 1919 v 139.9334 h -362.264 z"
             style="fill:none;stroke:#000000;stroke-width:2;stroke-linecap:round;stroke-linejoin:round;stroke-miterlimit:10;stroke-dasharray:none;stroke-opacity:1"
             id="path170"
             inkscape:connector-curvature="0" /></g><g
           id="g172"
           transform="matrix(1,0,0,-1,-118,872)"><text
             transform="translate(1604.624,389.0446)"
             style="font-variant:normal;font-weight:300;font-size:39px;font-family:Helvetica;-inkscape-font-specification:Helvetica-Light;writing-mode:lr-tb;fill:#000000;fill-opacity:1;fill-rule:nonzero;stroke:none"
             id="text176"><tspan
               x="0 23.829 47.658001 75.816002 99.644997 121.329 140.82899 162.513 190.67101 203.658 212.31599 231.81599 253.5"
               y="0"
               sodipodi:role="line"
               id="tspan174">SSHPushDriver</tspan></text>
</g><g
           id="g178"
           transform="matrix(1,0,0,-1,-118,872)"><path
             d="M 1455.33,490.1558 1352.339,362.2694"
             style="fill:none;stroke:#000000;stroke-width:2;stroke-linecap:round;stroke-linejoin:round;stroke-miterlimit:10;stroke-dasharray:none;stroke-opacity:1"
             id="path180"
             inkscape:connector-curvature="0" /></g><g
           id="g182"
           transform="matrix(1,0,0,-1,-118,872)"><path
             d="m 1346.318,354.7926 6.021,7.4768 m -2.804,2.258 -3.217,-9.7348 8.825,5.2188"
             style="fill:none;stroke:#000000;stroke-width:2;stroke-linecap:butt;stroke-linejoin:miter;stroke-miterlimit:10;stroke-dasharray:none;stroke-opacity:1"
             id="path184"
             inkscape:connector-curvature="0" /></g></g></g></g></svg>
